<svg width="1625" height="250" viewBox="0 0 1625 250" fill="none" xmlns="http://www.w3.org/2000/svg">
  <!-- Agent Mojo Logo - Dark Version -->
  <defs>
    <linearGradient id="gradient-dark" x1="0%" y1="0%" x2="100%" y2="0%">
      <stop offset="0%" style="stop-color:#00D4FF;stop-opacity:1" />
      <stop offset="50%" style="stop-color:#0099CC;stop-opacity:1" />
      <stop offset="100%" style="stop-color:#0066AA;stop-opacity:1" />
    </linearGradient>
    <linearGradient id="accent-dark" x1="0%" y1="0%" x2="100%" y2="0%">
      <stop offset="0%" style="stop-color:#FF6B35;stop-opacity:1" />
      <stop offset="100%" style="stop-color:#FF8E53;stop-opacity:1" />
    </linearGradient>
  </defs>
  
  <!-- Icon/Symbol -->
  <g transform="translate(20, 50)">
    <!-- Outer ring -->
    <circle cx="75" cy="75" r="70" stroke="url(#gradient-dark)" stroke-width="8" fill="none" opacity="0.8"/>
    <!-- Inner core -->
    <circle cx="75" cy="75" r="35" fill="url(#gradient-dark)" opacity="0.9"/>
    <!-- Lightning bolt for "mojo" energy -->
    <path d="M65 45 L85 75 L75 75 L85 105 L65 75 L75 75 Z" fill="url(#accent-dark)"/>
    <!-- Orbital rings -->
    <ellipse cx="75" cy="75" rx="55" ry="25" stroke="url(#gradient-dark)" stroke-width="3" fill="none" opacity="0.6" transform="rotate(30 75 75)"/>
    <ellipse cx="75" cy="75" rx="55" ry="25" stroke="url(#gradient-dark)" stroke-width="3" fill="none" opacity="0.6" transform="rotate(-30 75 75)"/>
  </g>
  
  <!-- Text: "Agent" -->
  <g transform="translate(200, 80)">
    <path d="M20 120 L40 60 L60 60 L80 120 M30 95 L70 95" stroke="#F8F7FF" stroke-width="8" stroke-linecap="round" stroke-linejoin="round" fill="none"/>
    <path d="M100 120 L100 60 Q100 45 115 45 Q130 45 130 60 L130 85 Q130 100 115 100 L100 100" stroke="#F8F7FF" stroke-width="8" stroke-linecap="round" stroke-linejoin="round" fill="none"/>
    <path d="M150 120 L150 60 Q150 45 165 45 Q180 45 180 60 L180 85 Q180 100 165 100 L150 100 M150 100 L180 120" stroke="#F8F7FF" stroke-width="8" stroke-linecap="round" stroke-linejoin="round" fill="none"/>
    <path d="M200 120 L200 60 L240 60 L240 80 L220 80 L220 100 L240 100 L240 120 L200 120" stroke="#F8F7FF" stroke-width="8" stroke-linecap="round" stroke-linejoin="round" fill="none"/>
    <path d="M260 120 L260 60 L300 60 L300 120 M260 90 L300 90" stroke="#F8F7FF" stroke-width="8" stroke-linecap="round" stroke-linejoin="round" fill="none"/>
    <path d="M320 120 L320 60 L360 60 L360 120 M320 90 L360 90" stroke="#F8F7FF" stroke-width="8" stroke-linecap="round" stroke-linejoin="round" fill="none"/>
  </g>
  
  <!-- Text: "Mojo" -->
  <g transform="translate(620, 80)">
    <path d="M20 120 L20 60 L40 60 L60 60 L60 120 L80 120 L80 60 L100 60 L100 120" stroke="url(#accent-dark)" stroke-width="8" stroke-linecap="round" stroke-linejoin="round" fill="none"/>
    <circle cx="140" cy="90" r="30" stroke="url(#accent-dark)" stroke-width="8" fill="none"/>
    <path d="M190 120 L190 60 L190 45 Q190 30 205 30 Q220 30 220 45 L220 60 L220 120 L220 135 Q220 150 205 150 Q190 150 190 135 L190 120" stroke="url(#accent-dark)" stroke-width="8" stroke-linecap="round" stroke-linejoin="round" fill="none"/>
    <circle cx="260" cy="90" r="30" stroke="url(#accent-dark)" stroke-width="8" fill="none"/>
  </g>
  
  <!-- Tagline -->
  <g transform="translate(200, 180)">
    <text x="0" y="0" font-family="Arial, sans-serif" font-size="24" font-weight="300" fill="#B0B0B0">Your Autonomous AI Coding Assistant</text>
  </g>
</svg>
